<svg xmlns="http://www.w3.org/2000/svg" width="1024" height="1536" viewBox="0 0 1024 1536" role="img" aria-labelledby="title desc">
  <title id="title">The Brick At The Council</title>
  <desc id="desc">Fire, water, and earth as witness</desc>
  <defs>
    <linearGradient id="bg" x1="0" y1="0" x2="1" y2="1">
      <stop offset="0" stop-color="#2d3f52"/>
      <stop offset="0.45" stop-color="#59624f"/>
      <stop offset="1" stop-color="#a86f3c"/>
    </linearGradient>
    <radialGradient id="halo" cx="50%" cy="25%" r="34%">
      <stop offset="0" stop-color="#fff3b0" stop-opacity="0.95"/>
      <stop offset="0.55" stop-color="#d9a441" stop-opacity="0.75"/>
      <stop offset="1" stop-color="#d9a441" stop-opacity="0"/>
    </radialGradient>
    <linearGradient id="robe" x1="0" y1="0" x2="0" y2="1">
      <stop offset="0" stop-color="#efe2bf"/>
      <stop offset="1" stop-color="#cba66a"/>
    </linearGradient>
    <filter id="shadow" x="-20%" y="-20%" width="140%" height="140%">
      <feDropShadow dx="0" dy="16" stdDeviation="18" flood-color="#1c1712" flood-opacity="0.35"/>
    </filter>
  </defs>
  <rect width="1024" height="1536" fill="url(#bg)"/>
  <circle cx="512" cy="382" r="352" fill="url(#halo)"/>
  <path d="M82 1250 C230 1138 334 1212 512 1115 C690 1212 794 1138 942 1250 L942 1536 L82 1536 Z" fill="#1f2f35" opacity="0.76"/>
  <g opacity="0.36" stroke="#f6d889" stroke-width="5" fill="none">
    <path d="M140 164 H884"/><path d="M168 206 H856"/><path d="M192 248 H832"/>
  </g>
  
  <g filter="url(#shadow)">
    <circle cx="512" cy="390" r="104" fill="#d6a645"/>
    <circle cx="512" cy="390" r="74" fill="#7c4d32"/>
    <path d="M374 1018 C392 720 426 538 512 538 C598 538 632 720 650 1018 Z" fill="url(#robe)"/>
    <path d="M432 548 C466 622 558 622 592 548" stroke="#5b3d2b" stroke-width="18" fill="none"/>
    <path d="M512 596 V900 M438 728 H586" stroke="#7a3f2b" stroke-width="24" stroke-linecap="round"/>
  </g>

  <g transform="translate(322 910)">
    <rect x="0" y="0" width="380" height="210" rx="18" fill="#b45c3e" stroke="#f1c779" stroke-width="10"/>
    <path d="M0 70 H380 M0 140 H380 M126 0 V70 M254 70 V140 M126 140 V210" stroke="#6d3529" stroke-width="8" opacity="0.7"/>
    <path d="M190 -158 C132 -74 172 -36 142 18 C214 -20 274 -74 190 -158 Z" fill="#f49a39"/>
    <path d="M66 -96 C22 -36 54 8 24 58 C96 44 136 -8 66 -96 Z" fill="#e4572f" opacity="0.9"/>
    <path d="M292 -88 C352 -30 324 34 368 74 C284 78 238 4 292 -88 Z" fill="#7dc9d7"/>
    <circle cx="190" cy="258" r="42" fill="#8b6f45"/>
  </g>
  <path d="M168 816 C310 730 714 730 856 816" stroke="#d5bd7a" stroke-width="18" fill="none"/>

  <g transform="translate(120 1330)">
    <rect x="0" y="0" width="784" height="104" rx="34" fill="#1c2529" opacity="0.72"/>
    <text x="392" y="42" text-anchor="middle" font-family="Georgia, 'Times New Roman', serif" font-size="34" fill="#f8e6b5">The Brick At The Council</text>
    <text x="392" y="78" text-anchor="middle" font-family="Georgia, 'Times New Roman', serif" font-size="22" fill="#d8c797">Fire, water, and earth as witness</text>
  </g>
</svg>